<?xml version="1.0" encoding="UTF-8"?>
<!-- Generator: Adobe Illustrator 16.0.0, SVG Export Plug-In . SVG Version: 6.00 Build 0)  -->
<!DOCTYPE svg PUBLIC "-//W3C//DTD SVG 1.1//EN" "http://www.w3.org/Graphics/SVG/1.1/DTD/svg11.dtd">
<svg version="1.1" id="Capa_1" xmlns="http://www.w3.org/2000/svg" xmlns:xlink="http://www.w3.org/1999/xlink" x="0px" y="0px" width="141.73px" height="102.05px" viewBox="0 0 141.73 102.05" enable-background="new 0 0 141.73 102.05" xml:space="preserve">
<g>
	<g>
		<g>
			<path d="M121.232,34.97c-0.498-0.49-1.195-0.722-1.889-0.629H92.271V22.378c0-11.822-9.584-21.406-21.406-21.406     s-21.406,9.583-21.406,21.406v11.962H22.387c-0.756,0-1.511,0-1.889,0.629c-0.508,0.488-0.743,1.194-0.63,1.889l9.444,51.626     c1.319,7.201,7.538,12.472,14.858,12.592h53.39c7.341-0.181,13.547-5.492,14.857-12.718l9.444-51.5     C121.976,36.165,121.74,35.458,121.232,34.97z M54.496,22.378c0-9.041,7.329-16.369,16.369-16.369     c9.041,0,16.369,7.329,16.369,16.369v11.962H54.496V22.378z M107.381,87.73c-0.848,4.772-4.975,8.264-9.82,8.311H44.17     c-4.847-0.047-8.973-3.537-9.821-8.311l-8.94-48.353h90.914L107.381,87.73z"/>
			<path d="M89.753,63.931c1.392,0,2.519-1.127,2.519-2.518v-7.556c0-1.391-1.127-2.518-2.519-2.518     c-1.391,0-2.519,1.127-2.519,2.518v7.556C87.234,62.804,88.362,63.931,89.753,63.931z"/>
			<path d="M51.978,63.931c1.391,0,2.519-1.127,2.519-2.518v-7.556c0-1.391-1.127-2.518-2.519-2.518     c-1.391,0-2.519,1.127-2.519,2.518v7.556C49.459,62.804,50.587,63.931,51.978,63.931z"/>
		</g>
	</g>
</g>
<path d="M85.234,79.164c-1.019,0.443-2.204-0.027-2.646-1.048c-1.938-4.486-6.524-7.385-11.683-7.385  c-5.277,0-9.89,2.896-11.752,7.381c-0.321,0.774-1.07,1.24-1.858,1.24c-0.257,0-0.52-0.05-0.771-0.152  c-1.026-0.428-1.513-1.605-1.086-2.632c2.488-5.989,8.56-9.859,15.468-9.859c6.764,0,12.799,3.85,15.378,9.811  C86.723,77.539,86.254,78.722,85.234,79.164z"/>
</svg>